<svg width="500" height="325" viewBox="0 0 500 325" fill="none" xmlns="http://www.w3.org/2000/svg">
<path d="M0 0H500V325H0V0Z" fill="#D9D9D9"/>
<path d="M330.945 161.758L327.477 160.867L329.188 143.875H346.695V147.883H332.867L331.836 157.164C332.461 156.805 333.25 156.469 334.203 156.156C335.172 155.844 336.281 155.688 337.531 155.688C339.109 155.688 340.523 155.961 341.773 156.508C343.023 157.039 344.086 157.805 344.961 158.805C345.852 159.805 346.531 161.008 347 162.414C347.469 163.82 347.703 165.391 347.703 167.125C347.703 168.766 347.477 170.273 347.023 171.648C346.586 173.023 345.922 174.227 345.031 175.258C344.141 176.273 343.016 177.062 341.656 177.625C340.312 178.188 338.727 178.469 336.898 178.469C335.523 178.469 334.219 178.281 332.984 177.906C331.766 177.516 330.672 176.93 329.703 176.148C328.75 175.352 327.969 174.367 327.359 173.195C326.766 172.008 326.391 170.617 326.234 169.023H330.359C330.547 170.305 330.922 171.383 331.484 172.258C332.047 173.133 332.781 173.797 333.688 174.25C334.609 174.688 335.68 174.906 336.898 174.906C337.93 174.906 338.844 174.727 339.641 174.367C340.438 174.008 341.109 173.492 341.656 172.82C342.203 172.148 342.617 171.336 342.898 170.383C343.195 169.43 343.344 168.359 343.344 167.172C343.344 166.094 343.195 165.094 342.898 164.172C342.602 163.25 342.156 162.445 341.562 161.758C340.984 161.07 340.273 160.539 339.43 160.164C338.586 159.773 337.617 159.578 336.523 159.578C335.07 159.578 333.969 159.773 333.219 160.164C332.484 160.555 331.727 161.086 330.945 161.758Z" fill="#9FA6B2"/>
<path d="M320.82 174.438V178H298.484V174.883L309.664 162.438C311.039 160.906 312.102 159.609 312.852 158.547C313.617 157.469 314.148 156.508 314.445 155.664C314.758 154.805 314.914 153.93 314.914 153.039C314.914 151.914 314.68 150.898 314.211 149.992C313.758 149.07 313.086 148.336 312.195 147.789C311.305 147.242 310.227 146.969 308.961 146.969C307.445 146.969 306.18 147.266 305.164 147.859C304.164 148.438 303.414 149.25 302.914 150.297C302.414 151.344 302.164 152.547 302.164 153.906H297.828C297.828 151.984 298.25 150.227 299.094 148.633C299.938 147.039 301.188 145.773 302.844 144.836C304.5 143.883 306.539 143.406 308.961 143.406C311.117 143.406 312.961 143.789 314.492 144.555C316.023 145.305 317.195 146.367 318.008 147.742C318.836 149.102 319.25 150.695 319.25 152.523C319.25 153.523 319.078 154.539 318.734 155.57C318.406 156.586 317.945 157.602 317.352 158.617C316.773 159.633 316.094 160.633 315.312 161.617C314.547 162.602 313.727 163.57 312.852 164.523L303.711 174.438H320.82Z" fill="#9FA6B2"/>
<path d="M277.789 158.805H280.883C282.398 158.805 283.648 158.555 284.633 158.055C285.633 157.539 286.375 156.844 286.859 155.969C287.359 155.078 287.609 154.078 287.609 152.969C287.609 151.656 287.391 150.555 286.953 149.664C286.516 148.773 285.859 148.102 284.984 147.648C284.109 147.195 283 146.969 281.656 146.969C280.438 146.969 279.359 147.211 278.422 147.695C277.5 148.164 276.773 148.836 276.242 149.711C275.727 150.586 275.469 151.617 275.469 152.805H271.133C271.133 151.07 271.57 149.492 272.445 148.07C273.32 146.648 274.547 145.516 276.125 144.672C277.719 143.828 279.562 143.406 281.656 143.406C283.719 143.406 285.523 143.773 287.07 144.508C288.617 145.227 289.82 146.305 290.68 147.742C291.539 149.164 291.969 150.938 291.969 153.062C291.969 153.922 291.766 154.844 291.359 155.828C290.969 156.797 290.352 157.703 289.508 158.547C288.68 159.391 287.602 160.086 286.273 160.633C284.945 161.164 283.352 161.43 281.492 161.43H277.789V158.805ZM277.789 162.367V159.766H281.492C283.664 159.766 285.461 160.023 286.883 160.539C288.305 161.055 289.422 161.742 290.234 162.602C291.062 163.461 291.641 164.406 291.969 165.438C292.312 166.453 292.484 167.469 292.484 168.484C292.484 170.078 292.211 171.492 291.664 172.727C291.133 173.961 290.375 175.008 289.391 175.867C288.422 176.727 287.281 177.375 285.969 177.812C284.656 178.25 283.227 178.469 281.68 178.469C280.195 178.469 278.797 178.258 277.484 177.836C276.188 177.414 275.039 176.805 274.039 176.008C273.039 175.195 272.258 174.203 271.695 173.031C271.133 171.844 270.852 170.492 270.852 168.977H275.188C275.188 170.164 275.445 171.203 275.961 172.094C276.492 172.984 277.242 173.68 278.211 174.18C279.195 174.664 280.352 174.906 281.68 174.906C283.008 174.906 284.148 174.68 285.102 174.227C286.07 173.758 286.812 173.055 287.328 172.117C287.859 171.18 288.125 170 288.125 168.578C288.125 167.156 287.828 165.992 287.234 165.086C286.641 164.164 285.797 163.484 284.703 163.047C283.625 162.594 282.352 162.367 280.883 162.367H277.789Z" fill="#9FA6B2"/>
<path d="M239.141 152.641L244.695 161.875L250.32 152.641H255.406L247.109 165.156L255.664 178H250.648L244.789 168.484L238.93 178H233.891L242.422 165.156L234.148 152.641H239.141Z" fill="#9FA6B2"/>
<path d="M218.258 158.219V163.422C218.258 166.219 218.008 168.578 217.508 170.5C217.008 172.422 216.289 173.969 215.352 175.141C214.414 176.312 213.281 177.164 211.953 177.695C210.641 178.211 209.156 178.469 207.5 178.469C206.188 178.469 204.977 178.305 203.867 177.977C202.758 177.648 201.758 177.125 200.867 176.406C199.992 175.672 199.242 174.719 198.617 173.547C197.992 172.375 197.516 170.953 197.188 169.281C196.859 167.609 196.695 165.656 196.695 163.422V158.219C196.695 155.422 196.945 153.078 197.445 151.188C197.961 149.297 198.688 147.781 199.625 146.641C200.562 145.484 201.688 144.656 203 144.156C204.328 143.656 205.812 143.406 207.453 143.406C208.781 143.406 210 143.57 211.109 143.898C212.234 144.211 213.234 144.719 214.109 145.422C214.984 146.109 215.727 147.031 216.336 148.188C216.961 149.328 217.438 150.727 217.766 152.383C218.094 154.039 218.258 155.984 218.258 158.219ZM213.898 164.125V157.492C213.898 155.961 213.805 154.617 213.617 153.461C213.445 152.289 213.188 151.289 212.844 150.461C212.5 149.633 212.062 148.961 211.531 148.445C211.016 147.93 210.414 147.555 209.727 147.32C209.055 147.07 208.297 146.945 207.453 146.945C206.422 146.945 205.508 147.141 204.711 147.531C203.914 147.906 203.242 148.508 202.695 149.336C202.164 150.164 201.758 151.25 201.477 152.594C201.195 153.938 201.055 155.57 201.055 157.492V164.125C201.055 165.656 201.141 167.008 201.312 168.18C201.5 169.352 201.773 170.367 202.133 171.227C202.492 172.07 202.93 172.766 203.445 173.312C203.961 173.859 204.555 174.266 205.227 174.531C205.914 174.781 206.672 174.906 207.5 174.906C208.562 174.906 209.492 174.703 210.289 174.297C211.086 173.891 211.75 173.258 212.281 172.398C212.828 171.523 213.234 170.406 213.5 169.047C213.766 167.672 213.898 166.031 213.898 164.125Z" fill="#9FA6B2"/>
<path d="M191.258 158.219V163.422C191.258 166.219 191.008 168.578 190.508 170.5C190.008 172.422 189.289 173.969 188.352 175.141C187.414 176.312 186.281 177.164 184.953 177.695C183.641 178.211 182.156 178.469 180.5 178.469C179.188 178.469 177.977 178.305 176.867 177.977C175.758 177.648 174.758 177.125 173.867 176.406C172.992 175.672 172.242 174.719 171.617 173.547C170.992 172.375 170.516 170.953 170.188 169.281C169.859 167.609 169.695 165.656 169.695 163.422V158.219C169.695 155.422 169.945 153.078 170.445 151.188C170.961 149.297 171.688 147.781 172.625 146.641C173.562 145.484 174.688 144.656 176 144.156C177.328 143.656 178.812 143.406 180.453 143.406C181.781 143.406 183 143.57 184.109 143.898C185.234 144.211 186.234 144.719 187.109 145.422C187.984 146.109 188.727 147.031 189.336 148.188C189.961 149.328 190.438 150.727 190.766 152.383C191.094 154.039 191.258 155.984 191.258 158.219ZM186.898 164.125V157.492C186.898 155.961 186.805 154.617 186.617 153.461C186.445 152.289 186.188 151.289 185.844 150.461C185.5 149.633 185.062 148.961 184.531 148.445C184.016 147.93 183.414 147.555 182.727 147.32C182.055 147.07 181.297 146.945 180.453 146.945C179.422 146.945 178.508 147.141 177.711 147.531C176.914 147.906 176.242 148.508 175.695 149.336C175.164 150.164 174.758 151.25 174.477 152.594C174.195 153.938 174.055 155.57 174.055 157.492V164.125C174.055 165.656 174.141 167.008 174.312 168.18C174.5 169.352 174.773 170.367 175.133 171.227C175.492 172.07 175.93 172.766 176.445 173.312C176.961 173.859 177.555 174.266 178.227 174.531C178.914 174.781 179.672 174.906 180.5 174.906C181.562 174.906 182.492 174.703 183.289 174.297C184.086 173.891 184.75 173.258 185.281 172.398C185.828 171.523 186.234 170.406 186.5 169.047C186.766 167.672 186.898 166.031 186.898 164.125Z" fill="#9FA6B2"/>
<path d="M148.32 161.758L144.852 160.867L146.562 143.875H164.07V147.883H150.242L149.211 157.164C149.836 156.805 150.625 156.469 151.578 156.156C152.547 155.844 153.656 155.688 154.906 155.688C156.484 155.688 157.898 155.961 159.148 156.508C160.398 157.039 161.461 157.805 162.336 158.805C163.227 159.805 163.906 161.008 164.375 162.414C164.844 163.82 165.078 165.391 165.078 167.125C165.078 168.766 164.852 170.273 164.398 171.648C163.961 173.023 163.297 174.227 162.406 175.258C161.516 176.273 160.391 177.062 159.031 177.625C157.688 178.188 156.102 178.469 154.273 178.469C152.898 178.469 151.594 178.281 150.359 177.906C149.141 177.516 148.047 176.93 147.078 176.148C146.125 175.352 145.344 174.367 144.734 173.195C144.141 172.008 143.766 170.617 143.609 169.023H147.734C147.922 170.305 148.297 171.383 148.859 172.258C149.422 173.133 150.156 173.797 151.062 174.25C151.984 174.688 153.055 174.906 154.273 174.906C155.305 174.906 156.219 174.727 157.016 174.367C157.812 174.008 158.484 173.492 159.031 172.82C159.578 172.148 159.992 171.336 160.273 170.383C160.57 169.43 160.719 168.359 160.719 167.172C160.719 166.094 160.57 165.094 160.273 164.172C159.977 163.25 159.531 162.445 158.938 161.758C158.359 161.07 157.648 160.539 156.805 160.164C155.961 159.773 154.992 159.578 153.898 159.578C152.445 159.578 151.344 159.773 150.594 160.164C149.859 160.555 149.102 161.086 148.32 161.758Z" fill="#9FA6B2"/>
</svg>
